<mxfile host="65bd71144e">
    <diagram id="Cep7uA-bG7b6Oozkc6WS" name="Page-1">
        <mxGraphModel dx="2341" dy="994" grid="1" gridSize="10" guides="1" tooltips="1" connect="1" arrows="1" fold="1" page="1" pageScale="1" pageWidth="827" pageHeight="1169" math="0" shadow="0">
            <root>
                <mxCell id="0"/>
                <mxCell id="1" parent="0"/>
                <mxCell id="44" style="edgeStyle=none;html=1;entryX=0;entryY=0.043;entryDx=0;entryDy=0;entryPerimeter=0;" parent="1" source="2" target="33" edge="1">
                    <mxGeometry relative="1" as="geometry"/>
                </mxCell>
                <mxCell id="2" value="" style="rounded=0;whiteSpace=wrap;html=1;" parent="1" vertex="1">
                    <mxGeometry x="120" y="160" width="180" height="670" as="geometry"/>
                </mxCell>
                <mxCell id="4" value="Generate Wallet" style="rounded=1;whiteSpace=wrap;html=1;fillColor=#dae8fc;strokeColor=#6c8ebf;" parent="1" vertex="1">
                    <mxGeometry x="130" y="170" width="160" height="30" as="geometry"/>
                </mxCell>
                <mxCell id="5" value="EncryptInheritorInfromation" style="rounded=1;whiteSpace=wrap;html=1;fillColor=#d5e8d4;strokeColor=#82b366;" parent="1" vertex="1">
                    <mxGeometry x="130" y="210" width="160" height="30" as="geometry"/>
                </mxCell>
                <mxCell id="6" value="EncryptInheritorDocument" style="rounded=1;whiteSpace=wrap;html=1;fillColor=#d5e8d4;strokeColor=#82b366;" parent="1" vertex="1">
                    <mxGeometry x="130" y="250" width="160" height="30" as="geometry"/>
                </mxCell>
                <mxCell id="7" value="EncryptTestatorDocument" style="rounded=1;whiteSpace=wrap;html=1;fillColor=#d5e8d4;strokeColor=#82b366;" parent="1" vertex="1">
                    <mxGeometry x="130" y="290" width="160" height="30" as="geometry"/>
                </mxCell>
                <mxCell id="8" value="UpsertInheritorInformation" style="rounded=1;whiteSpace=wrap;html=1;fillColor=#d5e8d4;strokeColor=#82b366;" parent="1" vertex="1">
                    <mxGeometry x="130" y="330" width="160" height="30" as="geometry"/>
                </mxCell>
                <mxCell id="9" value="UpsertTestatorDocument" style="rounded=1;whiteSpace=wrap;html=1;fillColor=#d5e8d4;strokeColor=#82b366;" parent="1" vertex="1">
                    <mxGeometry x="130" y="370" width="160" height="30" as="geometry"/>
                </mxCell>
                <mxCell id="10" value="ECAddKey" style="rounded=1;whiteSpace=wrap;html=1;fillColor=#e1d5e7;strokeColor=#9673a6;" parent="1" vertex="1">
                    <mxGeometry x="130" y="410" width="160" height="30" as="geometry"/>
                </mxCell>
                <mxCell id="11" value="ECRemoveKey" style="rounded=1;whiteSpace=wrap;html=1;fillColor=#e1d5e7;strokeColor=#9673a6;" parent="1" vertex="1">
                    <mxGeometry x="130" y="450" width="160" height="30" as="geometry"/>
                </mxCell>
                <mxCell id="12" value="ECGenerateKey" style="rounded=1;whiteSpace=wrap;html=1;fillColor=#e1d5e7;strokeColor=#9673a6;" parent="1" vertex="1">
                    <mxGeometry x="130" y="490" width="160" height="30" as="geometry"/>
                </mxCell>
                <mxCell id="14" value="ECGenerateSalt" style="rounded=1;whiteSpace=wrap;html=1;fillColor=#e1d5e7;strokeColor=#9673a6;" parent="1" vertex="1">
                    <mxGeometry x="130" y="530" width="160" height="30" as="geometry"/>
                </mxCell>
                <mxCell id="15" value="ECReGenerateSalt" style="rounded=1;whiteSpace=wrap;html=1;fillColor=#e1d5e7;strokeColor=#9673a6;" parent="1" vertex="1">
                    <mxGeometry x="130" y="569.5" width="160" height="30" as="geometry"/>
                </mxCell>
                <mxCell id="16" value="DecryptInheritorInformation" style="rounded=1;whiteSpace=wrap;html=1;fillColor=#f8cecc;strokeColor=#b85450;" parent="1" vertex="1">
                    <mxGeometry x="130" y="610" width="160" height="30" as="geometry"/>
                </mxCell>
                <mxCell id="17" value="GenerateMetadata" style="rounded=1;whiteSpace=wrap;html=1;fillColor=#60a917;fontColor=#ffffff;strokeColor=#2D7600;" parent="1" vertex="1">
                    <mxGeometry x="130" y="650" width="160" height="30" as="geometry"/>
                </mxCell>
                <mxCell id="18" value="CheckMetadata" style="rounded=1;whiteSpace=wrap;html=1;fillColor=#60a917;fontColor=#ffffff;strokeColor=#2D7600;" parent="1" vertex="1">
                    <mxGeometry x="130" y="690" width="160" height="30" as="geometry"/>
                </mxCell>
                <mxCell id="20" value="ECRecoverDocument" style="rounded=1;whiteSpace=wrap;html=1;fillColor=#1ba1e2;fontColor=#ffffff;strokeColor=#006EAF;" parent="1" vertex="1">
                    <mxGeometry x="130" y="730" width="160" height="30" as="geometry"/>
                </mxCell>
                <mxCell id="24" style="edgeStyle=none;html=1;" parent="1" source="21" edge="1">
                    <mxGeometry relative="1" as="geometry">
                        <mxPoint x="310" y="195" as="targetPoint"/>
                    </mxGeometry>
                </mxCell>
                <mxCell id="21" value="" style="rounded=1;whiteSpace=wrap;html=1;fillColor=#e3c800;fontColor=#000000;strokeColor=#B09500;" parent="1" vertex="1">
                    <mxGeometry x="360" y="60" width="140" height="170" as="geometry"/>
                </mxCell>
                <mxCell id="22" value="Admin Public Key" style="rounded=1;whiteSpace=wrap;html=1;" parent="1" vertex="1">
                    <mxGeometry x="370" y="170" width="120" height="30" as="geometry"/>
                </mxCell>
                <mxCell id="23" value="Config" style="text;html=1;strokeColor=none;fillColor=none;align=center;verticalAlign=middle;whiteSpace=wrap;rounded=0;" parent="1" vertex="1">
                    <mxGeometry x="400" y="200" width="60" height="30" as="geometry"/>
                </mxCell>
                <mxCell id="25" value="Js Library" style="text;html=1;strokeColor=none;fillColor=none;align=center;verticalAlign=middle;whiteSpace=wrap;rounded=0;" parent="1" vertex="1">
                    <mxGeometry x="170" y="790" width="60" height="30" as="geometry"/>
                </mxCell>
                <mxCell id="32" style="edgeStyle=none;html=1;" parent="1" source="26" edge="1">
                    <mxGeometry relative="1" as="geometry">
                        <mxPoint x="310" y="355" as="targetPoint"/>
                    </mxGeometry>
                </mxCell>
                <mxCell id="26" value="" style="rounded=1;whiteSpace=wrap;html=1;fillColor=#bac8d3;strokeColor=#23445d;" parent="1" vertex="1">
                    <mxGeometry x="360" y="250" width="140" height="210" as="geometry"/>
                </mxCell>
                <mxCell id="27" value="ECGenerate" style="rounded=1;whiteSpace=wrap;html=1;" parent="1" vertex="1">
                    <mxGeometry x="370" y="270" width="120" height="30" as="geometry"/>
                </mxCell>
                <mxCell id="28" value="ECEncrypt" style="rounded=1;whiteSpace=wrap;html=1;" parent="1" vertex="1">
                    <mxGeometry x="370" y="310" width="120" height="30" as="geometry"/>
                </mxCell>
                <mxCell id="29" value="ECDecrypt" style="rounded=1;whiteSpace=wrap;html=1;" parent="1" vertex="1">
                    <mxGeometry x="370" y="350" width="120" height="30" as="geometry"/>
                </mxCell>
                <mxCell id="30" value="ECDerivate" style="rounded=1;whiteSpace=wrap;html=1;" parent="1" vertex="1">
                    <mxGeometry x="370" y="390" width="120" height="30" as="geometry"/>
                </mxCell>
                <mxCell id="31" value="GO WASM&amp;nbsp;" style="text;html=1;strokeColor=none;fillColor=none;align=center;verticalAlign=middle;whiteSpace=wrap;rounded=0;" parent="1" vertex="1">
                    <mxGeometry x="400" y="430" width="60" height="30" as="geometry"/>
                </mxCell>
                <mxCell id="46" style="edgeStyle=none;html=1;" parent="1" source="33" edge="1">
                    <mxGeometry relative="1" as="geometry">
                        <mxPoint x="620" y="655" as="targetPoint"/>
                    </mxGeometry>
                </mxCell>
                <mxCell id="33" value="" style="rounded=1;whiteSpace=wrap;html=1;fillColor=#fad9d5;strokeColor=#ae4132;" parent="1" vertex="1">
                    <mxGeometry x="360" y="480" width="140" height="350" as="geometry"/>
                </mxCell>
                <mxCell id="34" value="UpsertDocument" style="rounded=1;whiteSpace=wrap;html=1;" parent="1" vertex="1">
                    <mxGeometry x="370" y="500" width="120" height="30" as="geometry"/>
                </mxCell>
                <mxCell id="35" value="Upsert&lt;br&gt;InheritorInformation" style="rounded=1;whiteSpace=wrap;html=1;" parent="1" vertex="1">
                    <mxGeometry x="370" y="539.5" width="120" height="30" as="geometry"/>
                </mxCell>
                <mxCell id="38" value="GetDocument&lt;br&gt;Metadata" style="rounded=1;whiteSpace=wrap;html=1;" parent="1" vertex="1">
                    <mxGeometry x="370" y="585" width="120" height="30" as="geometry"/>
                </mxCell>
                <mxCell id="39" value="SetDocument&lt;br&gt;Metadata" style="rounded=1;whiteSpace=wrap;html=1;" parent="1" vertex="1">
                    <mxGeometry x="370" y="630" width="120" height="30" as="geometry"/>
                </mxCell>
                <mxCell id="40" value="ListMetadata" style="rounded=1;whiteSpace=wrap;html=1;" parent="1" vertex="1">
                    <mxGeometry x="370" y="670" width="120" height="30" as="geometry"/>
                </mxCell>
                <mxCell id="41" value="LogInformation" style="rounded=1;whiteSpace=wrap;html=1;" parent="1" vertex="1">
                    <mxGeometry x="370" y="710" width="120" height="30" as="geometry"/>
                </mxCell>
                <mxCell id="42" value="DerivateKey" style="rounded=1;whiteSpace=wrap;html=1;" parent="1" vertex="1">
                    <mxGeometry x="370" y="750" width="120" height="30" as="geometry"/>
                </mxCell>
                <mxCell id="43" value="Hedera Smart Contract" style="text;html=1;strokeColor=none;fillColor=none;align=center;verticalAlign=middle;whiteSpace=wrap;rounded=0;" parent="1" vertex="1">
                    <mxGeometry x="390" y="790" width="80" height="30" as="geometry"/>
                </mxCell>
                <mxCell id="45" value="Hedera Blockchain" style="shape=cylinder3;whiteSpace=wrap;html=1;boundedLbl=1;backgroundOutline=1;size=15;" parent="1" vertex="1">
                    <mxGeometry x="630" y="599.5" width="60" height="80" as="geometry"/>
                </mxCell>
                <mxCell id="60" style="edgeStyle=none;html=1;" parent="1" source="47" target="53" edge="1">
                    <mxGeometry relative="1" as="geometry"/>
                </mxCell>
                <mxCell id="47" value="Admin" style="shape=umlActor;verticalLabelPosition=bottom;verticalAlign=top;html=1;outlineConnect=0;" parent="1" vertex="1">
                    <mxGeometry x="-130" y="300" width="30" height="60" as="geometry"/>
                </mxCell>
                <mxCell id="61" style="edgeStyle=none;html=1;" parent="1" source="48" target="54" edge="1">
                    <mxGeometry relative="1" as="geometry"/>
                </mxCell>
                <mxCell id="48" value="Testator" style="shape=umlActor;verticalLabelPosition=bottom;verticalAlign=top;html=1;outlineConnect=0;" parent="1" vertex="1">
                    <mxGeometry x="-130" y="440" width="30" height="60" as="geometry"/>
                </mxCell>
                <mxCell id="62" style="edgeStyle=none;html=1;entryX=0.07;entryY=0.4;entryDx=0;entryDy=0;entryPerimeter=0;" parent="1" source="50" target="55" edge="1">
                    <mxGeometry relative="1" as="geometry"/>
                </mxCell>
                <mxCell id="50" value="Inheritor" style="shape=umlActor;verticalLabelPosition=bottom;verticalAlign=top;html=1;outlineConnect=0;" parent="1" vertex="1">
                    <mxGeometry x="-130" y="570" width="30" height="60" as="geometry"/>
                </mxCell>
                <mxCell id="59" style="edgeStyle=none;html=1;" parent="1" source="53" edge="1">
                    <mxGeometry relative="1" as="geometry">
                        <mxPoint x="110" y="330" as="targetPoint"/>
                    </mxGeometry>
                </mxCell>
                <mxCell id="53" value="Admin App" style="ellipse;shape=cloud;whiteSpace=wrap;html=1;" parent="1" vertex="1">
                    <mxGeometry x="-50" y="290" width="120" height="80" as="geometry"/>
                </mxCell>
                <mxCell id="58" style="edgeStyle=none;html=1;entryX=-0.028;entryY=0.491;entryDx=0;entryDy=0;entryPerimeter=0;" parent="1" source="54" target="2" edge="1">
                    <mxGeometry relative="1" as="geometry"/>
                </mxCell>
                <mxCell id="54" value="Testator App" style="ellipse;shape=cloud;whiteSpace=wrap;html=1;" parent="1" vertex="1">
                    <mxGeometry x="-50" y="450" width="120" height="80" as="geometry"/>
                </mxCell>
                <mxCell id="57" style="edgeStyle=none;html=1;entryX=-0.022;entryY=0.687;entryDx=0;entryDy=0;entryPerimeter=0;" parent="1" source="55" target="2" edge="1">
                    <mxGeometry relative="1" as="geometry"/>
                </mxCell>
                <mxCell id="55" value="Inheritor App" style="ellipse;shape=cloud;whiteSpace=wrap;html=1;" parent="1" vertex="1">
                    <mxGeometry x="-50" y="580" width="120" height="80" as="geometry"/>
                </mxCell>
                <mxCell id="63" value="Smart Contract Address" style="rounded=1;whiteSpace=wrap;html=1;" parent="1" vertex="1">
                    <mxGeometry x="370" y="130" width="120" height="30" as="geometry"/>
                </mxCell>
                <mxCell id="64" value="Misc&amp;nbsp;&lt;br&gt;Configuration" style="rounded=1;whiteSpace=wrap;html=1;" parent="1" vertex="1">
                    <mxGeometry x="370" y="90" width="120" height="30" as="geometry"/>
                </mxCell>
            </root>
        </mxGraphModel>
    </diagram>
</mxfile>